<?xml version="1.0" standalone="no"?>
<!DOCTYPE svg PUBLIC "-//W3C//DTD SVG 20010904//EN"
 "http://www.w3.org/TR/2001/REC-SVG-20010904/DTD/svg10.dtd">
<svg version="1.0" xmlns="http://www.w3.org/2000/svg"
 width="1280.000000pt" height="1547.000000pt" viewBox="0 0 1280.000000 1547.000000"
 preserveAspectRatio="xMidYMid meet">

<g transform="translate(0.000000,1547.000000) scale(0.100000,-0.100000)"
fill="#EE4C2C" stroke="none">
<path d="M4059 13143 c-1279 -1281 -2366 -2373 -2415 -2428 -866 -971 -1418
-2191 -1574 -3479 -35 -295 -44 -448 -44 -781 0 -333 9 -486 44 -781 133
-1100 549 -2139 1213 -3034 1740 -2345 4830 -3223 7522 -2137 1305 526 2429
1511 3142 2755 463 808 727 1647 825 2627 18 176 18 924 0 1100 -56 557 -145
986 -307 1471 -298 896 -773 1690 -1428 2387 l-120 129 -573 -573 -573 -573
97 -101 c679 -699 1149 -1688 1276 -2685 42 -327 47 -834 11 -1135 -101 -858
-412 -1643 -919 -2320 -180 -242 -480 -561 -721 -770 -787 -680 -1730 -1077
-2775 -1165 -160 -14 -579 -14 -740 0 -813 68 -1561 323 -2225 757 -617 404
-1146 959 -1536 1610 -97 162 -264 506 -337 693 -289 747 -390 1553 -291 2335
121 956 517 1829 1162 2559 44 50 878 890 1854 1866 l1773 1775 0 1113 c0 611
-3 1112 -8 1112 -4 0 -1054 -1047 -2333 -2327z"/>
<path d="M8465 12891 c-158 -42 -266 -102 -379 -210 -445 -426 -283 -1183 297
-1382 474 -163 971 108 1087 593 24 99 26 261 6 359 -67 316 -309 565 -620
639 -108 26 -292 26 -391 1z"/>
</g>
</svg>
