<?xml version="1.0" encoding="UTF-8"?>
<svg version="1.1" xmlns="http://www.w3.org/2000/svg" width="230" height="251">
<path d="M0 0 C3.17728573 1.36235586 6.13525231 3.01935404 9.125 4.75 C10.00679932 5.24806152 10.88859863 5.74612305 11.79711914 6.25927734 C19.41306222 10.5889955 26.92005936 15.10032583 34.4140625 19.63671875 C64.75276423 38.14163201 64.75276423 38.14163201 96 55 C96 69.52 96 84.04 96 99 C88.08 103.455 88.08 103.455 80 108 C74.53212318 111.31434541 74.53212318 111.31434541 69.0859375 114.6640625 C65.25678514 116.32174618 63.96045946 116.29615037 60 115 C56.58783888 113.32955757 53.33001011 111.43562535 50.0625 109.5 C49.12954102 108.95682129 48.19658203 108.41364258 47.23535156 107.85400391 C44.48343348 106.24722052 41.73999525 104.6270169 39 103 C38.28505371 102.57557617 37.57010742 102.15115234 36.83349609 101.71386719 C33.18029436 99.53862242 29.53905267 97.34383116 25.89941406 95.14599609 C22.31404688 92.98279384 18.72323639 90.82923219 15.125 88.6875 C14.44727539 88.27870605 13.76955078 87.86991211 13.07128906 87.44873047 C8.20547633 84.56225151 3.21087873 82.19878825 -2 80 C-4.64168791 99.86572046 -4.64168791 99.86572046 1.27392578 117.95117188 C6.93419682 122.53979591 13.33001361 125.29930652 20.10986328 127.84667969 C29.8709371 131.74187421 29.8709371 131.74187421 32 136 C32.09892936 138.66381299 32.13983647 141.30089028 32.1328125 143.96484375 C32.13376923 144.75395645 32.13472595 145.54306915 32.13571167 146.35609436 C32.13639266 148.02637817 32.13454398 149.69666462 32.13037109 151.36694336 C32.12502878 153.92372596 32.13031511 156.48033231 32.13671875 159.03710938 C32.13605781 160.65885455 32.13477633 162.28059962 32.1328125 163.90234375 C32.13483673 164.66804184 32.13686096 165.43373993 32.13894653 166.22264099 C32.1248605 169.41357733 32.01652138 171.95043585 31 175 C28.37963867 176.77758789 28.37963867 176.77758789 24.91796875 178.72265625 C24.30738113 179.06880478 23.69679352 179.41495331 23.06770325 179.77159119 C21.11237334 180.87722104 19.15009127 181.96982184 17.1875 183.0625 C15.8764907 183.80191507 14.56593797 184.5421403 13.25585938 185.28320312 C3.16710261 190.97353666 3.16710261 190.97353666 -1 193 C-1.00410889 194.13018555 -1.00821777 195.26037109 -1.01245117 196.42480469 C-1.03424023 200.6222073 -1.08852674 204.81867217 -1.15258789 209.015625 C-1.17577003 210.83128871 -1.19016414 212.64708693 -1.19555664 214.46289062 C-1.20484503 217.07507161 -1.24582937 219.6851365 -1.29296875 222.296875 C-1.2890361 223.10743347 -1.28510345 223.91799194 -1.28105164 224.75311279 C-1.38134004 228.63579861 -1.56405264 230.54649275 -4.30322266 233.39599609 C-5.19315918 233.92531738 -6.0830957 234.45463867 -7 235 C-7.6499292 235.4213623 -8.2998584 235.84272461 -8.96948242 236.27685547 C-9.59185791 236.63666504 -10.2142334 236.99647461 -10.85546875 237.3671875 C-11.90589355 237.97953247 -11.90589355 237.97953247 -12.97753906 238.60424805 C-13.70682617 239.02359619 -14.43611328 239.44294434 -15.1875 239.875 C-20.86608335 243.15554115 -26.46395259 246.49483167 -31.921875 250.13671875 C-34.82634197 251.34327364 -36.00356366 251.00865956 -39 250 C-41.9481111 248.58295838 -44.78456093 246.99540061 -47.625 245.375 C-48.42099609 244.92640625 -49.21699219 244.4778125 -50.03710938 244.015625 C-66.10836363 234.89163637 -66.10836363 234.89163637 -70 231 C-70.26171303 228.98914146 -70.26171303 228.98914146 -70.2784729 226.46957397 C-70.28963638 225.51602524 -70.30079987 224.5624765 -70.31230164 223.58003235 C-70.31446182 222.53058945 -70.31662201 221.48114655 -70.31884766 220.39990234 C-70.32889328 219.29745682 -70.3389389 218.19501129 -70.34928894 217.05915833 C-70.3802731 213.40142354 -70.3971984 209.74376244 -70.4140625 206.0859375 C-70.43276189 203.5553015 -70.45233436 201.02467182 -70.4727478 198.49404907 C-70.51894046 192.50530028 -70.5563019 186.51655886 -70.58942068 180.52772868 C-70.62761161 173.71034069 -70.67702963 166.89304868 -70.72740483 160.07574153 C-70.83078895 146.0505655 -70.92002819 132.02532766 -71 118 C-73.88152825 119.59006801 -76.76122731 121.18342131 -79.640625 122.77734375 C-80.45096191 123.22444702 -81.26129883 123.67155029 -82.09619141 124.13220215 C-87.12150222 126.91653045 -92.04861872 129.79659705 -96.859375 132.94140625 C-99.87297075 134.43170634 -101.57341193 135.0039568 -105 135 C-108.66342583 133.46495668 -111.98871542 131.44015665 -115.375 129.375 C-116.2825 128.84003906 -117.19 128.30507812 -118.125 127.75390625 C-120.76423492 126.19090113 -123.38701959 124.60651975 -126 123 C-126.68487488 122.68511124 -127.36974976 122.37022247 -128.07537842 122.04579163 C-130.38643899 120.87847218 -132.15156522 119.8191834 -134 118 C-135.09747713 114.61614028 -134.93673682 111.41382355 -134.78125 107.88671875 C-134.76993042 106.91716751 -134.75861084 105.94761627 -134.74694824 104.94868469 C-134.70225207 101.85959109 -134.60190534 98.7751838 -134.5 95.6875 C-134.45986412 93.59056195 -134.42336353 91.49355096 -134.390625 89.39648438 C-134.3025386 84.26252426 -134.16453968 79.13205579 -134 74 C-133.31711914 73.63874023 -132.63423828 73.27748047 -131.93066406 72.90527344 C-119.6601701 66.39800646 -107.47350582 59.83423874 -95.60888672 52.60571289 C-88.92031677 48.53339304 -82.16289597 44.59187282 -75.375 40.6875 C-74.28364746 40.0594043 -73.19229492 39.43130859 -72.06787109 38.78417969 C-67.58882495 36.20841652 -63.10784259 33.63603123 -58.62695312 31.06347656 C-45.82968224 23.71303945 -33.06884469 16.31635702 -20.4375 8.68359375 C-19.71820313 8.25288574 -18.99890625 7.82217773 -18.2578125 7.37841797 C-16.6330994 6.38651376 -15.02552698 5.36633337 -13.4296875 4.32861328 C-4.88993852 -1.11547669 -4.88993852 -1.11547669 0 0 Z " fill="#EB8C23" transform="translate(134,0)"/>
<path d="M0 0 C3.17728573 1.36235586 6.13525231 3.01935404 9.125 4.75 C10.00679932 5.24806152 10.88859863 5.74612305 11.79711914 6.25927734 C19.41306222 10.5889955 26.92005936 15.10032583 34.4140625 19.63671875 C64.71668848 38.2140668 64.71668848 38.2140668 96 55 C95.77734375 57.32421875 95.77734375 57.32421875 95 60 C93.00390625 61.58203125 93.00390625 61.58203125 90.5625 62.8125 C89.75941406 63.23144531 88.95632812 63.65039062 88.12890625 64.08203125 C86 65 86 65 84 65 C84 65.66 84 66.32 84 67 C82.82244141 67.58007812 82.82244141 67.58007812 81.62109375 68.171875 C80.57050781 68.69265625 79.51992187 69.2134375 78.4375 69.75 C77.34050781 70.29140625 76.24351562 70.8328125 75.11328125 71.390625 C72.66388636 72.65681157 70.4199807 73.98728135 68.125 75.5 C65 77 65 77 62.3671875 76.4140625 C58.01260957 74.58534184 54.05418838 72.28664499 50 69.875 C48.29837053 68.87597251 46.59654623 67.8772768 44.89453125 66.87890625 C44.06131348 66.38793457 43.2280957 65.89696289 42.36962891 65.39111328 C39.15694902 63.50507887 35.92452271 61.6564665 32.6875 59.8125 C31.57890625 59.17957031 30.4703125 58.54664063 29.328125 57.89453125 C27.04866711 56.59695252 24.76765743 55.30251596 22.484375 54.01171875 C21.30202712 53.34124495 20.11973526 52.67067235 18.9375 52 C17.7928125 51.35160156 16.648125 50.70320313 15.46875 50.03515625 C13.06753752 48.65052044 10.72819497 47.19727472 8.40625 45.68359375 C7.53238647 45.11995117 7.53238647 45.11995117 6.64086914 44.54492188 C5.03248192 43.49925118 3.43575628 42.43570627 1.83984375 41.37109375 C-0.85973313 39.79335058 -0.85973313 39.79335058 -3.5625 40.1015625 C-6.28054386 41.10340559 -8.50478734 42.36565248 -10.9375 43.9375 C-14.55000618 46.18924152 -17.84856962 47.90751832 -22 49 C-22 49.66 -22 50.32 -22 51 C-22.9178125 51.44730469 -23.835625 51.89460938 -24.78125 52.35546875 C-26.02094282 52.96592355 -27.26051991 53.57661339 -28.5 54.1875 C-29.10070312 54.47947266 -29.70140625 54.77144531 -30.3203125 55.07226562 C-34.3174832 57.04958943 -38.07886648 59.25598976 -41.83935547 61.65014648 C-45.9246543 64.20241962 -50.12554849 66.5570781 -54.3125 68.9375 C-55.23587158 69.46311523 -56.15924316 69.98873047 -57.1105957 70.53027344 C-59.73854013 72.02349206 -62.36857538 73.51292444 -65 75 C-65.66225586 75.37463379 -66.32451172 75.74926758 -67.00683594 76.13525391 C-75.63854219 81 -75.63854219 81 -78 81 C-78 81.66 -78 82.32 -78 83 C-78.57105469 83.268125 -79.14210937 83.53625 -79.73046875 83.8125 C-83.73829444 85.74950955 -87.64469037 87.72664556 -91.3828125 90.1484375 C-92.23709839 90.69951172 -92.23709839 90.69951172 -93.10864258 91.26171875 C-94.75374158 92.33660791 -96.38689556 93.42971079 -98.01953125 94.5234375 C-101 96 -101 96 -103.5859375 95.8828125 C-106.15844031 94.94205904 -108.4284968 93.85156087 -110.8125 92.5 C-111.75480469 91.97019531 -112.69710937 91.44039063 -113.66796875 90.89453125 C-114.76753906 90.26933594 -115.86710937 89.64414063 -117 89 C-118.41214912 88.21114429 -119.82494671 87.42344866 -121.23828125 86.63671875 C-122.70070113 85.8206355 -124.1629415 85.0042305 -125.625 84.1875 C-126.3363208 83.79046875 -127.0476416 83.3934375 -127.78051758 82.984375 C-132.88410591 80.11589409 -132.88410591 80.11589409 -134 79 C-134.04063832 77.33382885 -134.042721 75.66611905 -134 74 C-133.31711914 73.63874023 -132.63423828 73.27748047 -131.93066406 72.90527344 C-119.6601701 66.39800646 -107.47350582 59.83423874 -95.60888672 52.60571289 C-88.92031677 48.53339304 -82.16289597 44.59187282 -75.375 40.6875 C-74.28364746 40.0594043 -73.19229492 39.43130859 -72.06787109 38.78417969 C-67.58882495 36.20841652 -63.10784259 33.63603123 -58.62695312 31.06347656 C-45.82968224 23.71303945 -33.06884469 16.31635702 -20.4375 8.68359375 C-19.71820313 8.25288574 -18.99890625 7.82217773 -18.2578125 7.37841797 C-16.6330994 6.38651376 -15.02552698 5.36633337 -13.4296875 4.32861328 C-4.88993852 -1.11547669 -4.88993852 -1.11547669 0 0 Z " fill="#F6BD3B" transform="translate(134,0)"/>
<path d="M0 0 C0 12.87 0 25.74 0 39 C1.98 39.66 3.96 40.32 6 41 C8.08300781 42.04980469 8.08300781 42.04980469 9.953125 43.171875 C10.65566406 43.58953125 11.35820313 44.0071875 12.08203125 44.4375 C12.79746094 44.870625 13.51289062 45.30375 14.25 45.75 C14.94996094 46.16765625 15.64992187 46.5853125 16.37109375 47.015625 C17.81925392 47.88082816 19.25628813 48.76489065 20.68237305 49.66601562 C23.00884365 51.08178734 23.00884365 51.08178734 25.73364258 52.06835938 C28.80781421 53.41212777 30.73476808 54.50841092 33 57 C34.48774156 62.655837 34.30867822 68.18731947 34.1875 74 C34.18813562 75.67660091 34.19267061 77.35320446 34.20092773 79.02978516 C34.20782802 84.35510336 34.10893539 89.67599132 34 95 C33.96799925 96.83430253 33.93642421 98.66861253 33.90527344 100.50292969 C33.71130573 111.33931495 33.40415031 122.16950495 33 133 C32.67 133 32.34 133 32 133 C32.04302246 131.89076172 32.08604492 130.78152344 32.13037109 129.63867188 C32.27231049 125.49351899 32.32062905 121.35148416 32.34179688 117.20410156 C32.36376241 115.41520219 32.4105844 113.62641902 32.48339844 111.83886719 C33.22777388 102.07986991 33.22777388 102.07986991 29.66192627 93.42895508 C25.83394114 90.38607769 21.52581404 88.75004624 17 87 C14.85903967 85.86288744 12.7306655 84.70121144 10.625 83.5 C9.08413731 82.66518102 7.54280434 81.8312252 6 81 C6 80.34 6 79.68 6 79 C3.03 78.505 3.03 78.505 0 78 C0 101.76 0 125.52 0 150 C0.99 150 1.98 150 3 150 C3 150.66 3 151.32 3 152 C0.06803281 153.29006557 -1.04808839 152.98166327 -4.09375 151.8203125 C-8.5008062 149.84141173 -12.71782667 147.5341369 -16.9375 145.1875 C-17.69740234 144.77435547 -18.45730469 144.36121094 -19.24023438 143.93554688 C-19.99498047 143.51724609 -20.74972656 143.09894531 -21.52734375 142.66796875 C-22.19499756 142.29953857 -22.86265137 141.9311084 -23.55053711 141.55151367 C-24.76302124 140.7835144 -24.76302124 140.7835144 -26 140 C-26.64571709 139.63619327 -27.29143417 139.27238653 -27.95671844 138.89755535 C-33.5511287 135.36155759 -33.5511287 135.36155759 -34.73121738 131.78200436 C-34.9922467 129.0635958 -35.00163704 126.44535338 -34.92407227 123.71533203 C-34.92823402 122.18247559 -34.92823402 122.18247559 -34.93247986 120.61865234 C-34.93200563 117.24701262 -34.87466936 113.87890835 -34.81640625 110.5078125 C-34.8040138 108.15902206 -34.79502525 105.8102114 -34.78929138 103.46139526 C-34.76443632 97.27916891 -34.69070709 91.09842771 -34.60760498 84.91674805 C-34.5476976 79.88063708 -34.52113303 74.84461919 -34.49662876 69.80822945 C-34.44586148 59.38638166 -34.37255961 48.9646093 -34.24047852 38.54345703 C-34.23150543 37.59046722 -34.22253235 36.63747742 -34.21328735 35.65560913 C-34.13664981 30.35786387 -33.76126418 25.2444666 -33 20 C-34.32 20 -35.64 20 -37 20 C-37 19.34 -37 18.68 -37 18 C-35.906875 17.79375 -34.81375 17.5875 -33.6875 17.375 C-28.76197453 16.17666107 -24.67517946 13.77747216 -20.3203125 11.2421875 C-18 10 -18 10 -16 10 C-16 9.34 -16 8.68 -16 8 C-15.24074219 7.59007813 -14.48148438 7.18015625 -13.69921875 6.7578125 C-12.20841797 5.94957031 -12.20841797 5.94957031 -10.6875 5.125 C-9.70136719 4.59132813 -8.71523437 4.05765625 -7.69921875 3.5078125 C-1.41968912 0 -1.41968912 0 0 0 Z " fill="#E2592B" transform="translate(98,97)"/>
<path d="M0 0 C2.475 0.495 2.475 0.495 5 1 C5.495 1.99 5.495 1.99 6 3 C3.525 2.505 3.525 2.505 1 2 C-1.64168791 21.86572046 -1.64168791 21.86572046 4.27392578 39.95117188 C9.93419682 44.53979591 16.33001361 47.29930652 23.10986328 49.84667969 C32.8709371 53.74187421 32.8709371 53.74187421 35 58 C35.09892936 60.66381299 35.13983647 63.30089028 35.1328125 65.96484375 C35.13376923 66.75395645 35.13472595 67.54306915 35.13571167 68.35609436 C35.13639266 70.02637817 35.13454398 71.69666462 35.13037109 73.36694336 C35.12502878 75.92372596 35.13031511 78.48033231 35.13671875 81.03710938 C35.13605781 82.65885455 35.13477633 84.28059962 35.1328125 85.90234375 C35.13483673 86.66804184 35.13686096 87.43373993 35.13894653 88.22264099 C35.1248605 91.41357733 35.01652138 93.95043585 34 97 C31.37963867 98.77758789 31.37963867 98.77758789 27.91796875 100.72265625 C27.30738113 101.06880478 26.69679352 101.41495331 26.06770325 101.77159119 C24.11237334 102.87722104 22.15009127 103.96982184 20.1875 105.0625 C18.8764907 105.80191507 17.56593797 106.5421403 16.25585938 107.28320312 C6.16710261 112.97353666 6.16710261 112.97353666 2 115 C1.99589111 116.13018555 1.99178223 117.26037109 1.98754883 118.42480469 C1.96575977 122.6222073 1.91147326 126.81867217 1.84741211 131.015625 C1.82422997 132.83128871 1.80983586 134.64708693 1.80444336 136.46289062 C1.79515497 139.07507161 1.75417063 141.6851365 1.70703125 144.296875 C1.71293022 145.51271271 1.71293022 145.51271271 1.71894836 146.75311279 C1.61865996 150.63579861 1.43594736 152.54649275 -1.30322266 155.39599609 C-2.63812744 156.18997803 -2.63812744 156.18997803 -4 157 C-4.6499292 157.4213623 -5.2998584 157.84272461 -5.96948242 158.27685547 C-6.59185791 158.63666504 -7.2142334 158.99647461 -7.85546875 159.3671875 C-8.90589355 159.97953247 -8.90589355 159.97953247 -9.97753906 160.60424805 C-10.70682617 161.02359619 -11.43611328 161.44294434 -12.1875 161.875 C-17.86608335 165.15554115 -23.46395259 168.49483167 -28.921875 172.13671875 C-31.62027784 173.25767181 -33.2416908 172.79566612 -36 172 C-34.125 170.9375 -34.125 170.9375 -32 170 C-31.34 170.33 -30.68 170.66 -30 171 C-30 170.34 -30 169.68 -30 169 C-30.99 169 -31.98 169 -33 169 C-33 145.24 -33 121.48 -33 97 C-31.02 97.33 -29.04 97.66 -27 98 C-27 98.66 -27 99.32 -27 100 C-26.17628906 100.23847656 -25.35257813 100.47695312 -24.50390625 100.72265625 C-20.36460645 102.23163176 -16.74227246 104.23847652 -12.9375 106.4375 C-11.89625977 107.03014648 -11.89625977 107.03014648 -10.83398438 107.63476562 C-7.19486277 109.71179515 -3.58981254 111.83867967 0 114 C0.07965241 108.67853329 0.10037985 103.36126805 0.06713867 98.03930664 C0.06406138 96.23034313 0.07692524 94.42127805 0.10620117 92.61254883 C0.73709757 82.71835009 0.73709757 82.71835009 -2.66821289 73.91235352 C-5.0623576 72.5902139 -7.39455246 71.825818 -10 71 C-11.92080029 69.95513688 -13.8175038 68.86509192 -15.69140625 67.73828125 C-16.65498047 67.17689453 -17.61855469 66.61550781 -18.61132812 66.03710938 C-20.0721582 65.18342773 -20.0721582 65.18342773 -21.5625 64.3125 C-22.57119141 63.73177734 -23.57988281 63.15105469 -24.61914062 62.55273438 C-26.04709961 61.71645508 -26.04709961 61.71645508 -27.50390625 60.86328125 C-28.36830322 60.36094971 -29.2327002 59.85861816 -30.12329102 59.34106445 C-31.05226196 58.67723755 -31.05226196 58.67723755 -32 58 C-32 57.34 -32 56.68 -32 56 C-29.75600958 54.48583642 -27.52648065 53.10318725 -25.1875 51.75 C-24.50913086 51.35031006 -23.83076172 50.95062012 -23.13183594 50.53881836 C-18.20228977 47.65086591 -13.21627834 44.87411166 -8.171875 42.19140625 C-5.81666498 40.94000172 -5.81666498 40.94000172 -3 39 C-2.01 39 -1.02 39 0 39 C0 26.13 0 13.26 0 0 Z " fill="#EA8C23" transform="translate(131,78)"/>
<path d="M0 0 C4.3698103 1.68994055 8.37690648 3.80220702 12.4375 6.125 C13.13762207 6.52243408 13.83774414 6.91986816 14.55908203 7.3293457 C16.00391937 8.15023896 17.44792844 8.97259172 18.89111328 9.79638672 C20.86168942 10.92106146 22.83469773 12.04132152 24.80859375 13.16015625 C32.50403284 17.53254142 40.12482079 22.01171386 47.67138672 26.63745117 C50.35318532 28.27746479 53.05000338 29.8901612 55.75 31.5 C56.65621094 32.06203125 57.56242187 32.6240625 58.49609375 33.203125 C63.55386412 36.34268235 63.55386412 36.34268235 69.2890625 36.53515625 C70.18367188 36.02855469 71.07828125 35.52195313 72 35 C72.94101563 34.51402344 73.88203125 34.02804688 74.8515625 33.52734375 C76.22441406 32.74037109 76.22441406 32.74037109 77.625 31.9375 C80.74573114 30.14985429 83.45225362 28.67457149 87 28 C87 27.34 87 26.68 87 26 C90.96 24.02 94.92 22.04 99 20 C99 33.2 99 46.4 99 60 C91.08 64.455 91.08 64.455 83 69 C77.53212318 72.31434541 77.53212318 72.31434541 72.0859375 75.6640625 C68.25678514 77.32174618 66.96045946 77.29615037 63 76 C59.58783888 74.32955757 56.33001011 72.43562535 53.0625 70.5 C52.12954102 69.95682129 51.19658203 69.41364258 50.23535156 68.85400391 C47.48343348 67.24722052 44.73999525 65.6270169 42 64 C41.28505371 63.57557617 40.57010742 63.15115234 39.83349609 62.71386719 C36.78708716 60.89992818 33.74865706 59.07319506 30.71484375 57.23828125 C26.43131646 54.65043832 22.12386846 52.10361947 17.8125 49.5625 C17.09288086 49.13694824 16.37326172 48.71139648 15.63183594 48.27294922 C14.95540039 47.87479004 14.27896484 47.47663086 13.58203125 47.06640625 C12.68834839 46.5396228 12.68834839 46.5396228 11.77661133 46.00219727 C10.49786459 45.28084845 9.19280843 44.60544098 7.8737793 43.96069336 C5.79730611 42.89607812 4.57383803 41.71069351 3 40 C2.48139404 39.64574951 1.96278809 39.29149902 1.4284668 38.92651367 C-0.87971805 35.8135609 -0.36557161 32.33557666 -0.29296875 28.61328125 C-0.28872391 27.79627243 -0.28447906 26.97926361 -0.28010559 26.13749695 C-0.26331691 23.52882893 -0.22566519 20.92093438 -0.1875 18.3125 C-0.17245337 16.54363095 -0.15876492 14.77474979 -0.14648438 13.00585938 C-0.11341286 8.67027504 -0.0616299 4.33526864 0 0 Z " fill="#E3592B" transform="translate(131,39)"/>
<path d="M0 0 C2.97 0.495 2.97 0.495 6 1 C6 1.66 6 2.32 6 3 C6.82242188 3.23847656 7.64484375 3.47695312 8.4921875 3.72265625 C12.6475962 5.23581732 16.29929679 7.24073721 20.125 9.4375 C20.82753906 9.83259766 21.53007813 10.22769531 22.25390625 10.63476562 C24.18753278 11.73316784 26.11077373 12.82674153 28 14 C29.08631714 14.54841553 29.08631714 14.54841553 30.19458008 15.10791016 C33.05229384 18.10280963 32.59063473 21.54142942 32.56640625 25.46484375 C32.57570412 26.70942101 32.57570412 26.70942101 32.58518982 27.97914124 C32.5922914 29.73339667 32.58910799 31.48771946 32.57641602 33.24194336 C32.56256489 35.92492988 32.59659275 38.60441848 32.63476562 41.28710938 C32.63571698 42.99218835 32.63385712 44.69727169 32.62890625 46.40234375 C32.64216446 47.20349106 32.65542267 48.00463837 32.66908264 48.83006287 C32.60342981 52.76303399 32.44713655 54.55459707 29.60717773 57.38354492 C28.74680908 57.9169751 27.88644043 58.45040527 27 59 C25.83984375 60.21816406 25.83984375 60.21816406 24.65625 61.4609375 C21.52289371 64.45605748 18.24025713 66.47712957 14.5 68.625 C13.84902344 69.0065625 13.19804688 69.388125 12.52734375 69.78125 C11.26348716 70.52169124 9.99689947 71.25749553 8.72729492 71.98803711 C7.19726954 72.88442654 5.69927903 73.83500829 4.20703125 74.79296875 C2 76 2 76 -0.8125 75.6875 C-1.534375 75.460625 -2.25625 75.23375 -3 75 C-1.125 73.9375 -1.125 73.9375 1 73 C1.66 73.33 2.32 73.66 3 74 C3 73.34 3 72.68 3 72 C2.01 72 1.02 72 0 72 C0 48.24 0 24.48 0 0 Z " fill="#EB8C23" transform="translate(98,175)"/>
<path d="M0 0 C2.475 0.495 2.475 0.495 5 1 C5.495 1.99 5.495 1.99 6 3 C3.525 2.505 3.525 2.505 1 2 C-1.64168791 21.86572046 -1.64168791 21.86572046 4.27392578 39.95117188 C9.93116414 44.5373374 16.32436449 47.30470999 23.10595703 49.83886719 C27.10162905 51.44198986 30.44113537 53.59291338 34 56 C33.505 56.99 33.505 56.99 33 58 C30.9375 58.625 30.9375 58.625 29 59 C29 59.66 29 60.32 29 61 C27.58847656 61.68835938 27.58847656 61.68835938 26.1484375 62.390625 C24.89051714 63.01019772 23.63271069 63.63000177 22.375 64.25 C21.44880859 64.70052734 21.44880859 64.70052734 20.50390625 65.16015625 C16.44821929 67.16665401 12.73858175 69.43430664 9 72 C7.68722559 72.82531038 6.35631049 73.62337793 5 74.375 C4.38125 74.73335938 3.7625 75.09171875 3.125 75.4609375 C-1.97740273 76.75529701 -6.81628619 73.09783724 -11.06665039 70.57226562 C-11.78715576 70.13591797 -12.50766113 69.69957031 -13.25 69.25 C-13.99564209 68.80333984 -14.74128418 68.35667969 -15.50952148 67.89648438 C-16.99241849 67.00787141 -18.4741414 66.11729572 -19.95458984 65.22460938 C-21.73642894 64.15780287 -23.53304663 63.1157574 -25.33203125 62.078125 C-26.23308594 61.55734375 -27.13414063 61.0365625 -28.0625 60.5 C-29.22458984 59.83484375 -29.22458984 59.83484375 -30.41015625 59.15625 C-31.19712891 58.58390625 -31.19712891 58.58390625 -32 58 C-32 57.34 -32 56.68 -32 56 C-29.75600958 54.48583642 -27.52648065 53.10318725 -25.1875 51.75 C-24.50913086 51.35031006 -23.83076172 50.95062012 -23.13183594 50.53881836 C-18.20228977 47.65086591 -13.21627834 44.87411166 -8.171875 42.19140625 C-5.81666498 40.94000172 -5.81666498 40.94000172 -3 39 C-2.01 39 -1.02 39 0 39 C0 26.13 0 13.26 0 0 Z " fill="#F7BC3C" transform="translate(131,78)"/>
<path d="M0 0 C0 13.2 0 26.4 0 40 C-7.92 44.455 -7.92 44.455 -16 49 C-20.78826325 51.96672635 -20.78826325 51.96672635 -25.546875 54.98046875 C-26.35640625 55.31691406 -27.1659375 55.65335938 -28 56 C-30.15332031 55.0637207 -30.15332031 55.0637207 -32 54 C-32.32329201 49.02015529 -32.55799957 44.04648465 -32.71411133 39.05859375 C-32.77919461 37.36610545 -32.86770958 35.6743403 -32.98071289 33.984375 C-33.70933263 22.80121597 -33.70933263 22.80121597 -32 18 C-26.52876019 12.19402814 -19.55843338 10.00548268 -12 8 C-12 7.34 -12 6.68 -12 6 C-10.18889433 4.99747693 -8.37607722 3.99804504 -6.5625 3 C-5.04849609 2.1646875 -5.04849609 2.1646875 -3.50390625 1.3125 C-1 0 -1 0 0 0 Z " fill="#EA8D23" transform="translate(230,59)"/>
<path d="M0 0 C2.5618106 1.26055852 5.1213091 2.52547818 7.6796875 3.79296875 C8.39987061 4.14677612 9.12005371 4.5005835 9.86206055 4.8651123 C14.48726266 7.16186458 18.81697751 9.64133849 23.0078125 12.67578125 C25.53037887 14.35254596 28.29077414 15.64538707 31 17 C31 29.54 31 42.08 31 55 C24.24934536 53.87489089 24.24934536 53.87489089 20.9765625 51.890625 C20.265 51.46523437 19.5534375 51.03984375 18.8203125 50.6015625 C17.73363281 49.93253906 17.73363281 49.93253906 16.625 49.25 C15.90828125 48.81945312 15.1915625 48.38890625 14.453125 47.9453125 C12.29352427 46.64331495 10.14398359 45.32758498 8 44 C7.33284973 43.68275467 6.66569946 43.36550934 5.97833252 43.03865051 C0.41217701 40.15126048 0.41217701 40.15126048 -0.69833374 37.04946899 C-0.92708158 34.65465173 -0.90117314 32.38318744 -0.78125 29.98046875 C-0.76993042 29.12189774 -0.75861084 28.26332672 -0.74694824 27.3787384 C-0.7022875 24.64602016 -0.60196314 21.91862118 -0.5 19.1875 C-0.45985882 17.3314562 -0.42335914 15.47532983 -0.390625 13.61914062 C-0.30258799 9.07738878 -0.16462719 4.53959485 0 0 Z " fill="#E3592C" transform="translate(0,79)"/>
<path d="M0 0 C2.875 1.5 2.875 1.5 5 3 C1.06329512 4.31223496 -1.12488144 3.24296256 -5 2 C-6.6483633 3.75244247 -6.6483633 3.75244247 -8 6 C-7.74276031 8.02919843 -7.74276031 8.02919843 -7 10 C-7 11.32 -7 12.64 -7 14 C-8.58323688 14.027193 -10.16661062 14.04648306 -11.75 14.0625 C-13.07257813 14.07990234 -13.07257813 14.07990234 -14.421875 14.09765625 C-17 14 -17 14 -19.015625 13.30859375 C-22.07216728 12.83326532 -23.46926699 14.30074168 -26 16 C-27.18293037 16.68215991 -28.37226269 17.35329007 -29.56640625 18.015625 C-30.2114209 18.37664307 -30.85643555 18.73766113 -31.52099609 19.10961914 C-32.19469238 19.48594482 -32.86838867 19.86227051 -33.5625 20.25 C-39.67976183 23.67079085 -45.73404513 27.17535954 -51.7421875 30.78515625 C-54 32 -54 32 -56 32 C-56 32.66 -56 33.32 -56 34 C-56.99 34 -57.98 34 -59 34 C-59 34.66 -59 35.32 -59 36 C-60.78953185 36.83790789 -62.58169695 37.67019396 -64.375 38.5 C-65.87160156 39.19609375 -65.87160156 39.19609375 -67.3984375 39.90625 C-70 41 -70 41 -72 41 C-72 41.66 -72 42.32 -72 43 C-72.639375 43.12375 -73.27875 43.2475 -73.9375 43.375 C-74.618125 43.58125 -75.29875 43.7875 -76 44 C-76.495 44.99 -76.495 44.99 -77 46 C-80.41133516 48.39715444 -81.70612989 49 -86 49 C-86 49.66 -86 50.32 -86 51 C-87.03125 51.4125 -88.0625 51.825 -89.125 52.25 C-91.79403908 53.37920884 -93.7997015 54.53826063 -96.25 56.1875 C-99 58 -99 58 -102 58 C-102 58.66 -102 59.32 -102 60 C-104.77996831 62.47108294 -107.5766635 63.64367808 -111 65 C-112.69707082 65.79231504 -114.38472832 66.60509705 -116.0625 67.4375 C-116.89910156 67.84871094 -117.73570313 68.25992188 -118.59765625 68.68359375 C-121.03747653 69.94336914 -121.03747653 69.94336914 -123.18359375 71.66015625 C-125 73 -125 73 -127 73 C-127 73.66 -127 74.32 -127 75 C-130.465 75.99 -130.465 75.99 -134 77 C-134 76.01 -134 75.02 -134 74 C-133.31711914 73.63874023 -132.63423828 73.27748047 -131.93066406 72.90527344 C-119.6601701 66.39800646 -107.47350582 59.83423874 -95.60888672 52.60571289 C-88.92031677 48.53339304 -82.16289597 44.59187282 -75.375 40.6875 C-74.28364746 40.0594043 -73.19229492 39.43130859 -72.06787109 38.78417969 C-67.58882495 36.20841652 -63.10784259 33.63603123 -58.62695312 31.06347656 C-45.82968224 23.71303945 -33.06884469 16.31635702 -20.4375 8.68359375 C-19.72166748 8.25216064 -19.00583496 7.82072754 -18.26831055 7.3762207 C-16.61877045 6.37541804 -14.97516298 5.364817 -13.33520508 4.34838867 C-12.44728271 3.80287354 -11.55936035 3.2573584 -10.64453125 2.6953125 C-9.83604736 2.19402832 -9.02756348 1.69274414 -8.19458008 1.17626953 C-5.24155553 -0.40651746 -3.277756 -0.68604195 0 0 Z " fill="#DBB756" transform="translate(134,0)"/>
<path d="M0 0 C1.32 0 2.64 0 4 0 C4 0.66 4 1.32 4 2 C3.34 2.66 2.68 3.32 2 4 C1.74538206 6.83506183 1.74538206 6.83506183 1.86474609 10.19384766 C1.89500381 12.14564438 1.89500381 12.14564438 1.9258728 14.13687134 C1.95817845 15.56260663 1.99070525 16.98833693 2.0234375 18.4140625 C2.04960042 19.86850446 2.07486777 21.32296279 2.09927368 22.7774353 C2.1659662 26.60812057 2.24484954 30.4384623 2.32623291 34.26885986 C2.40711278 38.17650147 2.47651784 42.08434478 2.546875 45.9921875 C2.68665639 53.66170273 2.83931101 61.33089132 3 69 C3.66 69 4.32 69 5 69 C5 69.66 5 70.32 5 71 C5.99 71 6.98 71 8 71 C8 70.01 8 69.02 8 68 C11.465 67.505 11.465 67.505 15 67 C11.53570052 71.06678634 7.00806918 74.15047698 2 76 C-0.78515625 75.63671875 -0.78515625 75.63671875 -3 75 C-1.125 73.9375 -1.125 73.9375 1 73 C1.66 73.33 2.32 73.66 3 74 C3 73.34 3 72.68 3 72 C2.01 72 1.02 72 0 72 C0 48.24 0 24.48 0 0 Z " fill="#F28631" transform="translate(98,175)"/>
<path d="M0 0 C4.38853849 1.75541539 8.35479261 3.78955716 12.4375 6.125 C13.13762207 6.52243408 13.83774414 6.91986816 14.55908203 7.3293457 C16.00391937 8.15023896 17.44792844 8.97259172 18.89111328 9.79638672 C20.86168942 10.92106146 22.83469773 12.04132152 24.80859375 13.16015625 C31.59572969 17.01417188 38.33161298 20.94365398 45 25 C43.31640625 25.69921875 43.31640625 25.69921875 41 26 C38.58984375 24.70703125 38.58984375 24.70703125 35.9375 22.8125 C32.06682106 20.19577595 28.56675656 18.32352954 24.125 16.875 C19.61250673 15.38581303 17.15891388 13.6375372 14 10 C12.11683841 8.89163577 12.11683841 8.89163577 10 8 C6.535 6.02 6.535 6.02 3 4 C3 13.9 3 23.8 3 34 C1.515 34.495 1.515 34.495 0 35 C0 23.45 0 11.9 0 0 Z " fill="#D7661F" transform="translate(131,39)"/>
<path d="M0 0 C4.44380725 1.33206358 8.1702764 3.09259061 12.15625 5.45703125 C12.73260696 5.79675964 13.30896393 6.13648804 13.90278625 6.48651123 C15.77173655 7.589845 17.63585578 8.70106903 19.5 9.8125 C20.79094958 10.57661479 22.08221229 11.34020078 23.3737793 12.10327148 C25.98717827 13.64847244 28.59867507 15.19681064 31.20849609 16.74804688 C35.76453445 19.45570485 40.3296611 22.14783593 44.89453125 24.84057617 C48.93200791 27.22313331 52.96638935 29.6109051 57 32 C53.25373781 33.11353866 51.52456128 32.80746732 48 31 C47 30 46 29 45 28 C42.89667109 27.28552357 42.89667109 27.28552357 41 27 C41 26.34 41 25.68 41 25 C39.68 24.67 38.36 24.34 37 24 C37 23.34 37 22.68 37 22 C35.35 21.67 33.7 21.34 32 21 C32 20.34 32 19.68 32 19 C31.38511719 18.81824219 30.77023438 18.63648437 30.13671875 18.44921875 C29.32847656 18.19785156 28.52023438 17.94648438 27.6875 17.6875 C26.88699219 17.44386719 26.08648437 17.20023438 25.26171875 16.94921875 C22.85146075 15.93765969 21.79717358 14.84933429 20 13 C17.90968576 11.86213274 17.90968576 11.86213274 15.625 10.9375 C14.8309375 10.5971875 14.036875 10.256875 13.21875 9.90625 C11.53357541 9.21793925 9.83245534 8.5685161 8.125 7.9375 C5.82039572 6.92076282 4.65231984 5.87763618 3 4 C2.443125 3.46375 1.88625 2.9275 1.3125 2.375 C0 1 0 1 0 0 Z " fill="#DBB660" transform="translate(139,4)"/>
<path d="M0 0 C2.475 0.495 2.475 0.495 5 1 C5.33 1.66 5.66 2.32 6 3 C4.35 2.67 2.7 2.34 1 2 C-1.64168791 21.86572046 -1.64168791 21.86572046 4.27392578 39.95117188 C9.93116414 44.5373374 16.32436449 47.30470999 23.10595703 49.83886719 C27.10162905 51.44198986 30.44113537 53.59291338 34 56 C33.505 56.99 33.505 56.99 33 58 C22.2195122 53.43902439 22.2195122 53.43902439 21 51 C18.97536745 50.34786708 18.97536745 50.34786708 17 50 C17 49.34 17 48.68 17 48 C15.35 47.34 13.7 46.68 12 46 C8.04 44.02 4.08 42.04 0 40 C0 26.8 0 13.6 0 0 Z " fill="#CFA153" transform="translate(131,78)"/>
<path d="M0 0 C2.875 1.5 2.875 1.5 5 3 C1.06329512 4.31223496 -1.12488144 3.24296256 -5 2 C-6.6483633 3.75244247 -6.6483633 3.75244247 -8 6 C-7.74276031 8.02919843 -7.74276031 8.02919843 -7 10 C-7 11.32 -7 12.64 -7 14 C-8.58323688 14.027193 -10.16661062 14.04648306 -11.75 14.0625 C-13.07257813 14.07990234 -13.07257813 14.07990234 -14.421875 14.09765625 C-17 14 -17 14 -19.1875 13.4375 C-21.68750018 12.83405168 -22.86307942 13.70258393 -25 15 C-22.0395966 9.53463987 -18.39809467 6.65277398 -13.0625 3.5625 C-12.16700439 3.03172852 -12.16700439 3.03172852 -11.25341797 2.49023438 C-7.34906858 0.32769372 -4.44211074 -0.51328241 0 0 Z " fill="#F2BA41" transform="translate(134,0)"/>
<path d="M0 0 C5.74837114 1.62133545 9.4503244 3.91684689 15 7 C15 17.89 15 28.78 15 40 C13.515 40.495 13.515 40.495 12 41 C11.34 40.34 10.68 39.68 10 39 C10.495 38.505 10.495 38.505 11 38 C11.15873955 35.78312006 11.25133837 33.56144702 11.31640625 31.33984375 C11.33718735 30.67537735 11.35796844 30.01091095 11.37937927 29.3263092 C11.44493658 27.19681457 11.50378785 25.06719332 11.5625 22.9375 C11.60567939 21.49673153 11.64929349 20.05597601 11.69335938 18.61523438 C11.80062393 15.0769596 11.90187371 11.53854131 12 8 C11.23042969 7.69320312 10.46085937 7.38640625 9.66796875 7.0703125 C7.87736526 6.35197377 6.09218283 5.61998351 4.3125 4.875 C2.10032209 3.88203597 2.10032209 3.88203597 0 4 C0 2.68 0 1.36 0 0 Z " fill="#DB6121" transform="translate(16,89)"/>
<path d="M0 0 C0.99 0.33 1.98 0.66 3 1 C3.02471188 6.07201786 3.04286564 11.14400071 3.05493164 16.21606445 C3.05996158 17.9416566 3.06678626 19.66724448 3.07543945 21.39282227 C3.08756361 23.8725693 3.09324169 26.35226 3.09765625 28.83203125 C3.10281754 29.60400345 3.10797882 30.37597565 3.11329651 31.17134094 C3.11363318 34.3830228 3.02326578 36.93020266 2 40 C-0.5625 41.1875 -0.5625 41.1875 -3 42 C-2.67 40.68 -2.34 39.36 -2 38 C-1.34 38 -0.68 38 0 38 C0 25.46 0 12.92 0 0 Z " fill="#D38A3D" transform="translate(163,135)"/>
<path d="M0 0 C0.02505615 0.70495605 0.0501123 1.40991211 0.07592773 2.13623047 C0.19318042 5.38261447 0.3153115 8.62879817 0.4375 11.875 C0.47681641 12.98359375 0.51613281 14.0921875 0.55664062 15.234375 C0.78394946 21.1793752 1.13158299 27.06847128 1.80102539 32.98095703 C2 35 2 35 2 38 C1.34 38 0.68 38 0 38 C-0.33 38.66 -0.66 39.32 -1 40 C-1 27.13 -1 14.26 -1 1 C-5.62 3.64 -10.24 6.28 -15 9 C-15.66 9 -16.32 9 -17 9 C-17 9.66 -17 10.32 -17 11 C-22.41538462 14.07692308 -22.41538462 14.07692308 -25.375 13.6875 C-25.91125 13.460625 -26.4475 13.23375 -27 13 C-26.34 13 -25.68 13 -25 13 C-25 12.34 -25 11.68 -25 11 C-23.37750059 10.16180842 -21.75191503 9.3295884 -20.125 8.5 C-19.22007813 8.0359375 -18.31515625 7.571875 -17.3828125 7.09375 C-15 6 -15 6 -13 6 C-12.67 5.01 -12.34 4.02 -12 3 C-10.29296875 2.05078125 -10.29296875 2.05078125 -8.1875 1.3125 C-7.50042969 1.06113281 -6.81335938 0.80976562 -6.10546875 0.55078125 C-4 0 -4 0 0 0 Z " fill="#F38632" transform="translate(99,96)"/>
<path d="M0 0 C5.55697534 1.35080626 9.93642592 2.52226212 14.17578125 6.54296875 C17.68390124 9.34495752 21.80415414 11.20380803 25.78125 13.25390625 C29 15 29 15 32.1328125 17.16796875 C34.83071562 18.89183328 36.25346023 19.5347214 39.375 19.75 C40.57125 19.8325 41.7675 19.915 43 20 C42.34 20.66 41.68 21.32 41 22 C41 22.99 41 23.98 41 25 C36.59039354 23.69344994 33.0563002 21.97440957 29.1875 19.5 C28.0583105 18.78744538 26.92804219 18.07659838 25.796875 17.3671875 C25.19294922 16.98788086 24.58902344 16.60857422 23.96679688 16.21777344 C20.32459334 13.96264543 16.63064045 11.79533884 12.9375 9.625 C12.21135498 9.19638672 11.48520996 8.76777344 10.73706055 8.32617188 C10.049104 7.92205078 9.36114746 7.51792969 8.65234375 7.1015625 C8.04382568 6.74400879 7.43530762 6.38645508 6.80834961 6.01806641 C4.97395795 4.94501413 4.97395795 4.94501413 2.83422852 4.05615234 C1 3 1 3 0 0 Z " fill="#C86137" transform="translate(136,79)"/>
<path d="M0 0 C0.66 0.33 1.32 0.66 2 1 C-0.47585238 3.65269897 -2.59026101 5.68010103 -6 7 C-6.99 7 -7.98 7 -9 7 C-9 7.66 -9 8.32 -9 9 C-11.77996831 11.47108294 -14.5766635 12.64367808 -18 14 C-19.69707082 14.79231504 -21.38472832 15.60509705 -23.0625 16.4375 C-23.89910156 16.84871094 -24.73570313 17.25992188 -25.59765625 17.68359375 C-28.03747653 18.94336914 -28.03747653 18.94336914 -30.18359375 20.66015625 C-32 22 -32 22 -34 22 C-34 22.66 -34 23.32 -34 24 C-36.31 24.66 -38.62 25.32 -41 26 C-41 25.01 -41 24.02 -41 23 C-40.29093506 22.62302979 -39.58187012 22.24605957 -38.85131836 21.85766602 C-35.54454676 20.09664594 -32.24035889 18.33084332 -28.9375 16.5625 C-28.34541748 16.24586395 -27.75333496 15.92922791 -27.14331055 15.60299683 C-19.35158445 11.42993732 -11.6360799 7.17662007 -4.19116211 2.40258789 C-2.82778518 1.54564898 -1.41805125 0.76306721 0 0 Z " fill="#D9B154" transform="translate(41,51)"/>
<path d="M0 0 C2.76501836 1.0572129 5.3711414 2.19330281 8 3.5625 C10.74361426 4.8771485 13.00970184 5.56025027 16 6 C16.33 6.99 16.66 7.98 17 9 C19.22550395 10.13813157 19.22550395 10.13813157 21.875 11 C25.38889276 12.22935024 27.4740888 13.28206046 30 16 C30.825 16.33 31.65 16.66 32.5 17 C35.09476777 18.03790711 36.14113107 18.97949029 38 21 C39.31963709 22.01800576 40.65009646 23.02248365 42 24 C37.60206265 24.68717771 35.19563492 23.06982031 31.6171875 20.6796875 C28.2638276 18.52753115 24.79688488 16.61774317 21.3125 14.6875 C15.9982161 11.71744113 10.71235463 8.70860395 5.5 5.5625 C4.4378125 4.92441406 3.375625 4.28632812 2.28125 3.62890625 C1.5284375 3.09136719 0.775625 2.55382813 0 2 C0 1.34 0 0.68 0 0 Z " fill="#FBB149" transform="translate(133,38)"/>
<path d="M0 0 C2.86545595 2.86545595 2.31629628 4.96814756 2.4140625 8.9765625 C2.43342865 9.66181 2.4527948 10.3470575 2.4727478 11.05307007 C2.53256831 13.24358644 2.57893756 15.4341553 2.625 17.625 C2.66317763 19.10939802 2.70222924 20.59377384 2.7421875 22.078125 C2.83827084 25.71854685 2.92229282 29.35913436 3 33 C3.77085937 32.69964844 4.54171875 32.39929688 5.3359375 32.08984375 C6.33882812 31.70957031 7.34171875 31.32929687 8.375 30.9375 C9.37273437 30.55464844 10.37046875 30.17179687 11.3984375 29.77734375 C14 29 14 29 16 30 C14.09564732 31.22764874 12.1760079 32.43161233 10.25 33.625 C9.18265625 34.29789063 8.1153125 34.97078125 7.015625 35.6640625 C6.02046875 36.10492188 5.0253125 36.54578125 4 37 C2.68 36.34 1.36 35.68 0 35 C0 23.45 0 11.9 0 0 Z " fill="#F18632" transform="translate(198,78)"/>
<path d="M0 0 C1.32 0 2.64 0 4 0 C4 0.66 4 1.32 4 2 C5.0209375 2.12375 5.0209375 2.12375 6.0625 2.25 C9.8746907 3.22332528 12.64070329 4.95807455 16 7 C16.33 6.01 16.66 5.02 17 4 C18.05045549 9.05774866 18.05206635 13.77291149 17.87890625 18.8984375 C17.85529526 19.73339752 17.83168427 20.56835754 17.80735779 21.42861938 C17.73120145 24.07760691 17.64697262 26.72626594 17.5625 29.375 C17.50923113 31.17836971 17.45649112 32.98175512 17.40429688 34.78515625 C17.2756519 39.19030949 17.13976996 43.59518627 17 48 C16.67 48 16.34 48 16 48 C16.04302246 46.89076172 16.08604492 45.78152344 16.13037109 44.63867188 C16.27231049 40.49351899 16.32062905 36.35148416 16.34179688 32.20410156 C16.36376241 30.41520219 16.4105844 28.62641902 16.48339844 26.83886719 C17.25533367 17.02542349 17.25533367 17.02542349 13.57531738 8.40478516 C9.72808659 5.46267465 5.45745888 3.80452595 1 2 C0.67 1.34 0.34 0.68 0 0 Z " fill="#D26518" transform="translate(114,182)"/>
<path d="M0 0 C0.66 0 1.32 0 2 0 C2 12.87 2 25.74 2 39 C1.34 39 0.68 39 0 39 C0 27.45 0 15.9 0 4 C-0.66 3.67 -1.32 3.34 -2 3 C-1.34 2.01 -0.68 1.02 0 0 Z " fill="#DD6520" transform="translate(96,97)"/>
<path d="M0 0 C3.68746328 0.5028359 6.82109196 0.99846531 10 3 C10.33 3.66 10.66 4.32 11 5 C12.32 4.67 13.64 4.34 15 4 C18 7.75 18 7.75 18 10 C18.72574219 10.10183594 19.45148437 10.20367187 20.19921875 10.30859375 C23.29731653 11.07339613 25.21088295 12.23748505 27.8125 14.0625 C28.60269531 14.61035156 29.39289062 15.15820312 30.20703125 15.72265625 C30.79871094 16.14417969 31.39039062 16.56570312 32 17 C31.34 17.33 30.68 17.66 30 18 C23.70427007 15.4235936 17.7225132 12.00007187 12.0234375 8.296875 C8.71226667 6.1746574 5.30153676 4.21836787 1.90625 2.234375 C1.2771875 1.82703125 0.648125 1.4196875 0 1 C0 0.67 0 0.34 0 0 Z " fill="#F9B049" transform="translate(0,78)"/>
<path d="M0 0 C1.65 0 3.3 0 5 0 C2.44998556 2.97501684 -0.50929453 4.3114067 -4 6 C-4.00616333 7.69527832 -4.00616333 7.69527832 -4.01245117 9.42480469 C-4.03424023 13.6222073 -4.08852674 17.81867217 -4.15258789 22.015625 C-4.17577003 23.83128871 -4.19016414 25.64708693 -4.19555664 27.46289062 C-4.20484503 30.07507161 -4.24582937 32.6851365 -4.29296875 35.296875 C-4.28706978 36.51271271 -4.28706978 36.51271271 -4.28105164 37.75311279 C-4.38289143 41.69586074 -4.59434343 43.57286922 -7.35668945 46.48144531 C-10 48 -10 48 -13 49 C-12.3125 47.125 -12.3125 47.125 -11 45 C-9.35 44.34 -7.7 43.68 -6 43 C-6 29.8 -6 16.6 -6 3 C-4.02 2.34 -2.04 1.68 0 1 C0 0.67 0 0.34 0 0 Z " fill="#CA833E" transform="translate(137,187)"/>
<path d="M0 0 C1.485 0.99 1.485 0.99 3 2 C3 2.99 3 3.98 3 5 C4.32 5.33 5.64 5.66 7 6 C7 6.66 7 7.32 7 8 C7.680625 8.08636719 8.36125 8.17273438 9.0625 8.26171875 C12.74440556 9.18709129 15.75832105 10.90420395 19 12.8125 C19.60328125 13.15603516 20.2065625 13.49957031 20.828125 13.85351562 C24.47727712 15.96764398 27.77678122 18.28346145 31 21 C26.25465486 20.46969764 23.05374539 19.1543555 18.98046875 16.69140625 C17.87638672 16.02689453 16.77230469 15.36238281 15.63476562 14.67773438 C15.06927002 14.33057373 14.50377441 13.98341309 13.92114258 13.62573242 C12.18131101 12.55870433 10.43244078 11.5078971 8.68164062 10.45898438 C0.13843895 5.2768779 0.13843895 5.2768779 -1 3 C-0.67 2.01 -0.34 1.02 0 0 Z " fill="#CB5C42" transform="translate(66,228)"/>
<path d="M0 0 C1.485 0.99 1.485 0.99 3 2 C3.35644531 4.64208984 3.35644531 4.64208984 3.328125 7.9609375 C3.32296875 9.15460938 3.3178125 10.34828125 3.3125 11.578125 C3.291875 12.83109375 3.27125 14.0840625 3.25 15.375 C3.24226562 17.24285156 3.24226562 17.24285156 3.234375 19.1484375 C3.14766972 29.2062501 3.14766972 29.2062501 2 33 C1.34 33 0.68 33 0 33 C0 22.11 0 11.22 0 0 Z " fill="#F38230" transform="translate(131,157)"/>
<path d="M0 0 C6.12594196 1.64454818 11.30748917 4.84319481 16.75 8 C17.70777344 8.5465625 18.66554687 9.093125 19.65234375 9.65625 C26.72799003 13.72799003 26.72799003 13.72799003 29 16 C20.89208032 14.64620057 12.42795992 11.17807883 6 6 C6 5.34 6 4.68 6 4 C4.02 3.34 2.04 2.68 0 2 C0 1.34 0 0.68 0 0 Z " fill="#D9BA5F" transform="translate(199,39)"/>
<path d="M0 0 C2.875 1.5 2.875 1.5 5 3 C2 4 2 4 -1.4375 2.875 C-2.613125 2.58625 -3.78875 2.2975 -5 2 C-7.26757564 3.28350327 -7.26757564 3.28350327 -9 5 C-9.99 5 -10.98 5 -12 5 C-12.144375 5.639375 -12.28875 6.27875 -12.4375 6.9375 C-13 9 -13 9 -14 10 C-16.33297433 10.04092937 -18.66705225 10.04241723 -21 10 C-18.42615591 7.12543185 -15.48436136 5.29061681 -12.1875 3.3125 C-11.17042969 2.68988281 -10.15335938 2.06726563 -9.10546875 1.42578125 C-5.72257542 -0.12737103 -3.67503032 -0.3957725 0 0 Z " fill="#DFBF6D" transform="translate(134,0)"/>
<path d="M0 0 C0.33 0 0.66 0 1 0 C1.33 11.55 1.66 23.1 2 35 C3.32 34.01 4.64 33.02 6 32 C6.99 32.33 7.98 32.66 9 33 C5.39042389 36.2910841 2.87362847 37.54663921 -2 38 C-1.01 37.505 -1.01 37.505 0 37 C-0.25124634 35.9941687 -0.25124634 35.9941687 -0.50756836 34.96801758 C-1.09830509 31.40748885 -1.0082612 28.11928462 -0.87890625 24.51171875 C-0.85529526 23.80852005 -0.83168427 23.10532135 -0.80735779 22.3808136 C-0.7311907 20.14947928 -0.64696693 17.918534 -0.5625 15.6875 C-0.50923218 14.16863841 -0.45649215 12.6497582 -0.40429688 11.13085938 C-0.2756401 7.42033791 -0.13975943 3.71012176 0 0 Z " fill="#F68435" transform="translate(31,97)"/>
<path d="M0 0 C5.98993805 1.57629949 10.79517427 4.76784874 16 8 C17.87319616 9.12800096 19.74812605 10.25312917 21.625 11.375 C23.08333333 12.25 24.54166667 13.125 26 14 C25.67 14.99 25.34 15.98 25 17 C24.21625 16.525625 23.4325 16.05125 22.625 15.5625 C21.11051322 14.66101977 19.5764103 13.78820515 18 13 C18 12.34 18 11.68 18 11 C17.31550781 10.75378906 16.63101563 10.50757813 15.92578125 10.25390625 C12.4813594 8.77772546 9.35904818 6.91397206 6.1875 4.9375 C5.59001953 4.57333984 4.99253906 4.20917969 4.37695312 3.83398438 C2.89859629 2.91993746 1.44651932 1.96364025 0 1 C0 0.67 0 0.34 0 0 Z " fill="#D36920" transform="translate(105,140)"/>
<path d="M0 0 C1.00289062 0.10183594 2.00578125 0.20367187 3.0390625 0.30859375 C3.80992188 0.39238281 4.58078125 0.47617188 5.375 0.5625 C5.375 3.2025 5.375 5.8425 5.375 8.5625 C5.045 8.5625 4.715 8.5625 4.375 8.5625 C4.045 6.2525 3.715 3.9425 3.375 1.5625 C2.60414062 1.995625 1.83328125 2.42875 1.0390625 2.875 C0.03617188 3.431875 -0.96671875 3.98875 -2 4.5625 C-2.99773438 5.119375 -3.99546875 5.67625 -5.0234375 6.25 C-7.625 7.5625 -7.625 7.5625 -9.625 7.5625 C-9.625 6.5725 -9.625 5.5825 -9.625 4.5625 C-8.305 4.5625 -6.985 4.5625 -5.625 4.5625 C-5.625 3.5725 -5.625 2.5825 -5.625 1.5625 C-6.285 1.2325 -6.945 0.9025 -7.625 0.5625 C-4.89657939 -0.80171031 -3.01546682 -0.31557211 0 0 Z " fill="#D48738" transform="translate(59.625,116.4375)"/>
<path d="M0 0 C0.66 0.33 1.32 0.66 2 1 C-3.75 5 -3.75 5 -6 5 C-6 5.66 -6 6.32 -6 7 C-6.99 7.66 -7.98 8.32 -9 9 C-10.19232613 11.05003955 -10.19232613 11.05003955 -11 13 C-11.66 11.68 -12.32 10.36 -13 9 C-14.32 9 -15.64 9 -17 9 C-17 8.34 -17 7.68 -17 7 C-15.865625 6.773125 -14.73125 6.54625 -13.5625 6.3125 C-9.18473695 5.25122411 -5.69398592 3.28286586 -1.8828125 0.92578125 C-1.26148437 0.62027344 -0.64015625 0.31476563 0 0 Z " fill="#DA6422" transform="translate(78,108)"/>
<path d="M0 0 C0.66 0.33 1.32 0.66 2 1 C-8.65441176 10.71526909 -8.65441176 10.71526909 -14.9375 11.25 C-15.618125 11.1675 -16.29875 11.085 -17 11 C-13.44145169 8.03344679 -9.8017732 5.54141897 -5.8125 3.1875 C-4.76707031 2.56230469 -3.72164062 1.93710938 -2.64453125 1.29296875 C-1.33548828 0.65294922 -1.33548828 0.65294922 0 0 Z " fill="#DCB462" transform="translate(111,10)"/>
<path d="M0 0 C-2.05196282 1.37298244 -4.11404029 2.72269162 -6.1875 4.0625 C-7.0547168 4.64741211 -7.0547168 4.64741211 -7.93945312 5.24414062 C-10.81367938 7.07909863 -12.47428345 8.04562293 -15.92578125 7.74609375 C-16.61027344 7.49988281 -17.29476562 7.25367188 -18 7 C-16.125 5.9375 -16.125 5.9375 -14 5 C-13.34 5.33 -12.68 5.66 -12 6 C-12 5.01 -12 4.02 -12 3 C-10.35 3 -8.7 3 -7 3 C-7 2.01 -7 1.02 -7 0 C-2.25 -1.125 -2.25 -1.125 0 0 Z " fill="#D78448" transform="translate(113,243)"/>
<path d="M0 0 C0.33 0.99 0.66 1.98 1 3 C-0.43294498 3.84114171 -1.87154405 4.67265687 -3.3125 5.5 C-4.51326172 6.19609375 -4.51326172 6.19609375 -5.73828125 6.90625 C-8 8 -8 8 -11 8 C-11 7.34 -11 6.68 -11 6 C-7.37 4.02 -3.74 2.04 0 0 Z M-13 8 C-12.34 8.33 -11.68 8.66 -11 9 C-11.99 9.33 -12.98 9.66 -14 10 C-14 10.66 -14 11.32 -14 12 C-14.99 11.67 -15.98 11.34 -17 11 C-15.68 10.01 -14.36 9.02 -13 8 Z " fill="#E29220" transform="translate(229,59)"/>
<path d="M0 0 C5.05255964 0.63156995 9.29593201 2.13459373 14 4 C14 5.32 14 6.64 14 8 C9.02790438 6.23570801 4.56561939 3.6060834 0 1 C0 0.67 0 0.34 0 0 Z " fill="#D76A57" transform="translate(177,104)"/>
<path d="M0 0 C4.62 0.66 9.24 1.32 14 2 C13.34 2.66 12.68 3.32 12 4 C12 4.99 12 5.98 12 7 C7.39104317 5.68315519 3.85859765 3.84801255 0 1 C0 0.67 0 0.34 0 0 Z " fill="#D06448" transform="translate(165,97)"/>
<path d="M0 0 C3.63 1.98 7.26 3.96 11 6 C11 6.99 11 7.98 11 9 C3.57142857 5.85714286 3.57142857 5.85714286 0 4 C0 2.68 0 1.36 0 0 Z " fill="#D8B467" transform="translate(153,127)"/>
<path d="M0 0 C4.62 2.31 9.24 4.62 14 7 C13.67 7.99 13.34 8.98 13 10 C10.69 9.01 8.38 8.02 6 7 C6 6.34 6 5.68 6 5 C4.68 4.67 3.36 4.34 2 4 C2 3.34 2 2.68 2 2 C1.34 2 0.68 2 0 2 C0 1.34 0 0.68 0 0 Z " fill="#D36520" transform="translate(0,79)"/>
<path d="M0 0 C5.08218027 1.39759957 9.96671562 3.55021107 14 7 C14 7.99 14 8.98 14 10 C13.34 10 12.68 10 12 10 C12 9.34 12 8.68 12 8 C11.42765625 7.896875 10.8553125 7.79375 10.265625 7.6875 C7.61367934 6.88277166 5.94009991 5.68718808 3.75 4 C3.04359375 3.46375 2.3371875 2.9275 1.609375 2.375 C1.07828125 1.92125 0.5471875 1.4675 0 1 C0 0.67 0 0.34 0 0 Z " fill="#D3641C" transform="translate(184,70)"/>
<path d="M0 0 C0.66 0.33 1.32 0.66 2 1 C-5.54784218 7.91704269 -5.54784218 7.91704269 -10 9 C-11.34317686 8.70885602 -12.67946005 8.38087152 -14 8 C-11.7136988 6.63597957 -9.42178251 5.28365726 -7.125 3.9375 C-6.47402344 3.54755859 -5.82304687 3.15761719 -5.15234375 2.75585938 C-3.46934275 1.77555467 -1.73703801 0.88101568 0 0 Z " fill="#D2B15B" transform="translate(27,59)"/>
<path d="M0 0 C5.31027254 1.46032495 9.46330032 3.98320986 14 7 C11.50722424 7.91662607 10.41374538 8.17798858 7.9296875 7.109375 C7.25164062 6.66078125 6.57359375 6.2121875 5.875 5.75 C5.19179687 5.31171875 4.50859375 4.8734375 3.8046875 4.421875 C2 3 2 3 0 0 Z " fill="#F38530" transform="translate(104,178)"/>
<path d="M0 0 C1.65 0 3.3 0 5 0 C3.09542929 2.22199916 1.64134671 3.16834746 -1.0625 4.4375 C-4.11068828 6.05887675 -4.90197792 6.81573596 -6 10 C-6 7.69 -6 5.38 -6 3 C-4.02 2.34 -2.04 1.68 0 1 C0 0.67 0 0.34 0 0 Z " fill="#D58C43" transform="translate(137,187)"/>
<path d="M0 0 C2.64 0.33 5.28 0.66 8 1 C7.67 1.99 7.34 2.98 7 4 C7.99 4.33 8.98 4.66 10 5 C8.4375 5.75 8.4375 5.75 6 6 C3.49713591 4.86915563 1.32992278 3.47860484 -1 2 C-0.67 1.34 -0.34 0.68 0 0 Z " fill="#D05636" transform="translate(2,117)"/>
<path d="M0 0 C-1.95245185 1.19714555 -3.91214997 2.38248074 -5.875 3.5625 C-6.96554688 4.22378906 -8.05609375 4.88507813 -9.1796875 5.56640625 C-10.57574219 6.27603516 -10.57574219 6.27603516 -12 7 C-12.66 6.67 -13.32 6.34 -14 6 C-10.96095324 2.3278185 -4.86447691 -2.43223845 0 0 Z " fill="#DB9651" transform="translate(214,108)"/>
<path d="M0 0 C0.33 0 0.66 0 1 0 C1 4.95 1 9.9 1 15 C1.99 15.33 2.98 15.66 4 16 C2.1875 16.6875 2.1875 16.6875 0 17 C-1.75 15.5625 -1.75 15.5625 -3 14 C-2.01 14 -1.02 14 0 14 C-0.08378906 13.24074219 -0.16757813 12.48148438 -0.25390625 11.69921875 C-0.35574219 10.70535156 -0.45757812 9.71148437 -0.5625 8.6875 C-0.66691406 7.70136719 -0.77132812 6.71523437 -0.87890625 5.69921875 C-1 3 -1 3 0 0 Z " fill="#D26220" transform="translate(197,98)"/>
<path d="M0 0 C2.97 0.495 2.97 0.495 6 1 C6 1.66 6 2.32 6 3 C6.969375 3.268125 7.93875 3.53625 8.9375 3.8125 C9.948125 4.204375 10.95875 4.59625 12 5 C12.33 5.99 12.66 6.98 13 8 C8.27626146 6.37621488 4.05818166 3.89006982 0 1 C0 0.67 0 0.34 0 0 Z " fill="#FCAF49" transform="translate(175,63)"/>
<path d="M0 0 C1.6498275 0.42218816 3.29483665 0.86324425 4.9375 1.3125 C6.31228516 1.67794922 6.31228516 1.67794922 7.71484375 2.05078125 C8.46894531 2.36402344 9.22304687 2.67726562 10 3 C10.33 3.99 10.66 4.98 11 6 C13.00016466 7.20882096 13.00016466 7.20882096 15 8 C12.5625 7.625 12.5625 7.625 10 7 C9.67 6.34 9.34 5.68 9 5 C6.42048126 4.30906104 6.42048126 4.30906104 3.4375 3.875 C2.42558594 3.70742187 1.41367188 3.53984375 0.37109375 3.3671875 C-0.41136719 3.24601563 -1.19382812 3.12484375 -2 3 C-1.34 2.01 -0.68 1.02 0 0 Z " fill="#E7BA49" transform="translate(129,1)"/>
<path d="M0 0 C1.98 0 3.96 0 6 0 C5.8125 2.375 5.8125 2.375 5 5 C2.4375 6.3125 2.4375 6.3125 0 7 C0.33 5.68 0.66 4.36 1 3 C1.66 3 2.32 3 3 3 C3 2.34 3 1.68 3 1 C2.01 0.67 1.02 0.34 0 0 Z " fill="#EFB548" transform="translate(224,55)"/>
<path d="M0 0 C1.98 0.66 3.96 1.32 6 2 C0.85714286 6.42857143 0.85714286 6.42857143 -3 7 C-2.34 6.01 -1.68 5.02 -1 4 C-0.36707617 1.88719655 -0.36707617 1.88719655 0 0 Z " fill="#D98C3C" transform="translate(154,175)"/>
<path d="M0 0 C4.56454251 0.54339792 7.9728176 1.79463821 12 4 C11.67 4.66 11.34 5.32 11 6 C6.49197399 4.74194623 3.5087188 3.09592835 0 0 Z " fill="#FCB147" transform="translate(188,71)"/>
<path d="M0 0 C4.05281712 1.22527029 7.44360764 2.69880494 11 5 C10.67 5.99 10.34 6.98 10 8 C9.21625 7.525625 8.4325 7.05125 7.625 6.5625 C6.11051322 5.66101977 4.5764103 4.78820515 3 4 C3 3.34 3 2.68 3 2 C2.01 1.67 1.02 1.34 0 1 C0 0.67 0 0.34 0 0 Z " fill="#CF6418" transform="translate(120,149)"/>
<path d="M0 0 C0 0.66 0 1.32 0 2 C-1.26691507 2.67408308 -2.53870749 3.33900497 -3.8125 4 C-4.52019531 4.37125 -5.22789063 4.7425 -5.95703125 5.125 C-8 6 -8 6 -11 6 C-11 5.34 -11 4.68 -11 4 C-9.73308493 3.32591692 -8.46129251 2.66099503 -7.1875 2 C-6.47980469 1.62875 -5.77210937 1.2575 -5.04296875 0.875 C-3 0 -3 0 0 0 Z " fill="#E08F1F" transform="translate(131,115)"/>
<path d="M0 0 C0.66 0.33 1.32 0.66 2 1 C1 4 1 4 -1.3125 5.25 C-4.16597407 6.04631835 -5.24802325 5.8214856 -8 5 C-6.71475739 4.13619741 -5.42157581 3.28419631 -4.125 2.4375 C-3.04605469 1.72400391 -3.04605469 1.72400391 -1.9453125 0.99609375 C-1.30335937 0.66738281 -0.66140625 0.33867188 0 0 Z " fill="#E0B461" transform="translate(61,39)"/>
<path d="M0 0 C4.05281712 1.22527029 7.44360764 2.69880494 11 5 C9 6 9 6 7.08984375 5.546875 C6.37957031 5.28390625 5.66929687 5.0209375 4.9375 4.75 C4.22464844 4.49734375 3.51179687 4.2446875 2.77734375 3.984375 C1 3 1 3 0 0 Z " fill="#DFB977" transform="translate(139,4)"/>
<path d="M0 0 C0.33 1.32 0.66 2.64 1 4 C-1.31 4 -3.62 4 -6 4 C-5.67 3.01 -5.34 2.02 -5 1 C-3 0 -3 0 0 0 Z " fill="#EF8719" transform="translate(122,232)"/>
<path d="M0 0 C0.99 0.66 1.98 1.32 3 2 C3 2.99 3 3.98 3 5 C0.625 5.625 0.625 5.625 -2 6 C-2.66 5.34 -3.32 4.68 -4 4 C-2.68 2.68 -1.36 1.36 0 0 Z " fill="#D8603E" transform="translate(17,121)"/>
<path d="M0 0 C3.93673644 1.31224548 6.22719294 2.91910327 9 6 C2.25 4.125 2.25 4.125 0 3 C0 2.01 0 1.02 0 0 Z " fill="#C15937" transform="translate(160,92)"/>
<path d="M0 0 C0.99 0.33 1.98 0.66 3 1 C-0.60957611 4.2910841 -3.12637153 5.54663921 -8 6 C-5.38485683 3.87961365 -2.80362384 1.86908256 0 0 Z " fill="#CF7E3D" transform="translate(37,129)"/>
<path d="M0 0 C-0.99 1.485 -0.99 1.485 -2 3 C-5.625 3.1875 -5.625 3.1875 -9 3 C-6.38997624 -0.48003168 -4.1689578 -0.27793052 0 0 Z " fill="#E3BB60" transform="translate(122,7)"/>
<path d="M0 0 C3.99500618 1.3697164 6.80009492 3.25722422 10 6 C6.38238619 5.67112602 4.44334967 5.37334709 1.625 3 C0 1 0 1 0 0 Z " fill="#C1513A" transform="translate(87,243)"/>
<path d="M0 0 C-0.33 1.98 -0.66 3.96 -1 6 C-2.32 5.34 -3.64 4.68 -5 4 C-5 3.34 -5 2.68 -5 2 C-2 0 -2 0 0 0 Z " fill="#FCB242" transform="translate(104,132)"/>
<path d="M0 0 C0 1.32 0 2.64 0 4 C-2.9375 3.625 -2.9375 3.625 -6 3 C-6.33 2.34 -6.66 1.68 -7 1 C-4.50935112 0.31292445 -2.62113708 0 0 0 Z " fill="#D56438" transform="translate(31,130)"/>
<path d="M0 0 C-1.28813342 0.83878455 -2.58063256 1.67086783 -3.875 2.5 C-4.59429687 2.9640625 -5.31359375 3.428125 -6.0546875 3.90625 C-8 5 -8 5 -10 5 C-9 2 -9 2 -6.125 0.25 C-3 -1 -3 -1 0 0 Z " fill="#E0901D" transform="translate(71,76)"/>
<path d="M0 0 C0 0.66 0 1.32 0 2 C-2.31 2.66 -4.62 3.32 -7 4 C-7 3.01 -7 2.02 -7 1 C-4.53721199 -0.231394 -2.7204945 -0.07159196 0 0 Z " fill="#DCB642" transform="translate(7,73)"/>
<path d="M0 0 C0.66 0.33 1.32 0.66 2 1 C-1.07999946 4.67230705 -3.2482602 5.56802365 -8 6 C-5.63404067 3.38499232 -3.13950774 1.61000397 0 0 Z " fill="#E0C571" transform="translate(111,10)"/>
<path d="M0 0 C2.6875 -0.3125 2.6875 -0.3125 5 0 C2.64722731 2.72426311 0.37503669 3.8141763 -3 5 C-1.8125 2.5 -1.8125 2.5 0 0 Z " fill="#D4843A" transform="translate(118,236)"/>
<path d="M0 0 C0.625 1.875 0.625 1.875 1 4 C0.34 4.66 -0.32 5.32 -1 6 C-3.125 5.625 -3.125 5.625 -5 5 C-3.35 3.35 -1.7 1.7 0 0 Z " fill="#F28A1A" transform="translate(129,226)"/>
<path d="M0 0 C-5.17578125 3.22265625 -5.17578125 3.22265625 -7 4 C-7.99 3.67 -8.98 3.34 -10 3 C-3.94594595 -1.97297297 -3.94594595 -1.97297297 0 0 Z " fill="#D77D1B" transform="translate(215,106)"/>
</svg>
